<svg id="Layer_1" data-name="Layer 1" xmlns="http://www.w3.org/2000/svg" xmlns:xlink="http://www.w3.org/1999/xlink" viewBox="0 0 256 256"><defs><style>.cls-1{fill:#1a1a1a;}.cls-2{fill:url(#Degradado_sin_nombre_6118);}.cls-3{fill:url(#Degradado_sin_nombre_6118-2);}.cls-4{fill:url(#Degradado_sin_nombre_6118-3);}</style><linearGradient id="Degradado_sin_nombre_6118" x1="69.73" y1="15.6" x2="201.34" y2="221.49" gradientUnits="userSpaceOnUse"><stop offset="0" stop-color="#ffa234"/><stop offset="0.28" stop-color="#ff76ff"/><stop offset="0.51" stop-color="#9e01ff"/><stop offset="0.84" stop-color="#005bff"/><stop offset="1" stop-color="#00d9d2"/></linearGradient><linearGradient id="Degradado_sin_nombre_6118-2" x1="276.67" y1="90.69" x2="41.08" y2="264.37" xlink:href="#Degradado_sin_nombre_6118"/><linearGradient id="Degradado_sin_nombre_6118-3" x1="275.22" y1="41.96" x2="26.73" y2="180.39" xlink:href="#Degradado_sin_nombre_6118"/></defs><title>DEEN-Logo</title><rect class="cls-1" width="256" height="256" rx="9" ry="9"/><path class="cls-2" d="M178.35,45.09A59,59,0,0,1,158.59,66q-1.25.8-2.54,1.57c-15.26,9-33.17,12.42-50.58,15.87C87.06,87.12,68.12,91.22,52.8,102a67.83,67.83,0,0,0-11.2,10V67.24a32,32,0,0,1,32-32h62.59A94.38,94.38,0,0,1,178.35,45.09Z"/><path class="cls-3" d="M230.85,129.37A94.63,94.63,0,0,1,136.23,224H41.6v-4.84C47.87,207.68,58,198,69.38,191.32c2.06-1.22,4.14-2.34,6.27-3.4.44-.22.86-.44,1.3-.64s1-.5,1.55-.74l1.53-.71,1.58-.69c1-.42,2-.82,3-1.23a1.3,1.3,0,0,0,.2-.07l3.2-1.22c1.07-.4,2.16-.77,3.24-1.15s2.12-.72,3.19-1.06c6.94-2.22,14.06-4,21.21-5.56,3.63-.8,7.26-1.55,10.87-2.27,19.74-4,39.84-7.62,58-16.4,2.48-1.21,4.91-2.51,7.29-3.91a112.13,112.13,0,0,0,38-37.29A94.42,94.42,0,0,1,230.85,129.37Z"/><path class="cls-4" d="M178.35,45.09A59,59,0,0,1,158.59,66q-1.25.8-2.54,1.57c-15.26,9-33.17,12.42-50.58,15.87C87.06,87.12,68.12,91.22,52.8,102a67.83,67.83,0,0,0-11.2,10V219.62C47.87,208.13,58,198.5,69.38,191.78c2.06-1.22,4.14-2.34,6.27-3.4.44-.22.86-.44,1.3-.64s1-.5,1.55-.74l1.53-.71,1.58-.69c1-.42,2-.82,3-1.23a1.3,1.3,0,0,0,.2-.07l3.2-1.22c1.07-.4,2.16-.77,3.24-1.15s2.17-.72,3.27-1.07h-.07l-1.76.21c-2.92-22.78.34-45.28,14.49-64.61a81,81,0,0,1,57.33-32.84,81,81,0,0,1-48.85,91.68c3.63-.79,7.26-1.53,10.87-2.27,19.74-4,39.84-7.62,58-16.4,2.48-1.21,4.91-2.51,7.29-3.91a112.13,112.13,0,0,0,38-37.29A94.74,94.74,0,0,0,178.35,45.09Z"/></svg>